<?xml version="1.0" encoding="UTF-8" standalone="no"?>
<svg
   viewBox="0 0 36 36"
   version="1.1"
   id="svg9"
   sodipodi:docname="icon-invert.svg"
   inkscape:version="1.3.2 (091e20e, 2023-11-25)"
   inkscape:export-filename="icon-180.png"
   inkscape:export-xdpi="480"
   inkscape:export-ydpi="480"
   xmlns:inkscape="http://www.inkscape.org/namespaces/inkscape"
   xmlns:sodipodi="http://sodipodi.sourceforge.net/DTD/sodipodi-0.dtd"
   xmlns="http://www.w3.org/2000/svg"
   xmlns:svg="http://www.w3.org/2000/svg">
  <defs
     id="defs9">
    <rect
       x="-61.627119"
       y="-35.542373"
       width="52.169492"
       height="52.779661"
       id="rect10" />
  </defs>
  <sodipodi:namedview
     id="namedview9"
     pagecolor="#ffffff"
     bordercolor="#666666"
     borderopacity="1.0"
     inkscape:showpageshadow="2"
     inkscape:pageopacity="0.0"
     inkscape:pagecheckerboard="0"
     inkscape:deskcolor="#d1d1d1"
     inkscape:zoom="6.5555556"
     inkscape:cx="17.923729"
     inkscape:cy="18"
     inkscape:window-width="1536"
     inkscape:window-height="907"
     inkscape:window-x="0"
     inkscape:window-y="25"
     inkscape:window-maximized="0"
     inkscape:current-layer="svg9" />
  <path
     fill="#FFDC5D"
     d="M5 21c0 2.209-1.119 4-2.5 4S0 23.209 0 21s1.119-4 2.5-4S5 18.791 5 21z"
     id="path1"
     style="fill:#bec0c0;fill-opacity:1" />
  <path
     fill="#FFDC5D"
     d="M3 18.562C3 10.037 8.373 3.125 15 3.125s12 6.912 12 15.438C27 27.088 21.627 34 15 34S3 27.088 3 18.562z"
     id="path2"
     style="fill:#bec0c0;fill-opacity:1" />
  <path
     fill="#DD2E44"
     d="M20 0c-.249 0-.478.007-.713.012C19.19.01 19.097 0 19 0 9 0 2 4.582 2 9s6.373 4 13 4c4.442 0 7.648 0 9.966-.086L25 13l6 15h2s.343-3.055 1-7c1-6 .533-21-14-21z"
     id="path3"
     style="fill:#bababa;fill-opacity:1" />
  <path
     fill="#FFDC5D"
     d="M30 21c0 2.209-1.119 4-2.5 4S25 23.209 25 21s1.119-4 2.5-4 2.5 1.791 2.5 4z"
     id="path4"
     style="fill:#bec0c0;fill-opacity:1" />
  <path
     fill="#E6E7E8"
     d="M27 25c0-2-2.293-.707-3 0-1 1-3 3-5 2-2.828-1.414-4-1-4-1s-1.171-.414-4 1c-2 1-4-1-5-2-.707-.707-3-2-3 0s1 2 1 2c-1 2 1 3 1 3 0 3 3 3 3 3 0 3 4 2 4 2 1 1 3 1 3 1s2 0 3-1c0 0 4 1 4-2 0 0 3 0 3-3 0 0 2-1 1-3 0 0 1 0 1-2z"
     id="path7"
     style="fill:#cbcdcd;fill-opacity:1" />
  <ellipse
     fill="#D1D3D4"
     cx="3"
     cy="14"
     rx="2"
     ry="4"
     id="ellipse8"
     style="fill:#cccccc;fill-opacity:1" />
  <ellipse
     fill="#D1D3D4"
     cx="26"
     cy="14"
     rx="2"
     ry="4"
     id="ellipse9"
     style="fill:#cccccc;fill-opacity:1" />
  <circle
     fill="#F1F2F2"
     cx="32"
     cy="29"
     r="4"
     id="circle9"
     style="fill:#d0d2d2;fill-opacity:1" />
  <path
     fill="#F1F2F2"
     d="M29 12c0 1.104-.896 2-2 2H2c-1.104 0-2-.896-2-2v-1c0-1.104.896-2 2-2h25c1.104 0 2 .896 2 2v1z"
     id="path9"
     style="fill:#d0d2d2;fill-opacity:1" />
  <text
     xml:space="preserve"
     style="font-style:normal;font-variant:normal;font-weight:normal;font-stretch:normal;font-size:32px;line-height:1.25;font-family:'Liberation Sans';-inkscape-font-specification:'Liberation Sans'"
     x="5.7966113"
     y="29.898306"
     id="text9"><tspan
       sodipodi:role="line"
       id="tspan9"
       x="5.7966113"
       y="29.898306"
       style="font-style:normal;font-variant:normal;font-weight:bold;font-stretch:normal;font-size:32px;font-family:'Liberation Sans';-inkscape-font-specification:'Liberation Sans';fill:#141414;fill-opacity:1">?</tspan></text>
  <text
     xml:space="preserve"
     id="text10"
     style="font-size:40px;line-height:1.25;font-family:'JetBrains Mono';-inkscape-font-specification:'JetBrains Mono';white-space:pre;shape-inside:url(#rect10);display:inline" />
</svg>
