<svg xmlns="http://www.w3.org/2000/svg" viewBox="0 0 36 36"><path fill="#FFDC5D" d="M5 21c0 2.209-1.119 4-2.5 4S0 23.209 0 21s1.119-4 2.5-4S5 18.791 5 21" style="fill:#bec0c0;fill-opacity:1"/><path fill="#FFDC5D" d="M3 18.562C3 10.037 8.373 3.125 15 3.125s12 6.912 12 15.438S21.627 34 15 34 3 27.088 3 18.562" style="fill:#bec0c0;fill-opacity:1"/><path fill="#DD2E44" d="M20 0c-.249 0-.478.007-.713.012C19.19.01 19.097 0 19 0 9 0 2 4.582 2 9s6.373 4 13 4c4.442 0 7.648 0 9.966-.086L25 13l6 15h2s.343-3.055 1-7c1-6 .533-21-14-21" style="fill:#bababa;fill-opacity:1"/><path fill="#FFDC5D" d="M30 21c0 2.209-1.119 4-2.5 4S25 23.209 25 21s1.119-4 2.5-4 2.5 1.791 2.5 4" style="fill:#bec0c0;fill-opacity:1"/><path fill="#E6E7E8" d="M27 25c0-2-2.293-.707-3 0-1 1-3 3-5 2-2.828-1.414-4-1-4-1s-1.171-.414-4 1c-2 1-4-1-5-2-.707-.707-3-2-3 0s1 2 1 2c-1 2 1 3 1 3 0 3 3 3 3 3 0 3 4 2 4 2 1 1 3 1 3 1s2 0 3-1c0 0 4 1 4-2 0 0 3 0 3-3 0 0 2-1 1-3 0 0 1 0 1-2" style="fill:#cbcdcd;fill-opacity:1"/><ellipse cx="3" cy="14" fill="#D1D3D4" rx="2" ry="4" style="fill:#ccc;fill-opacity:1"/><ellipse cx="26" cy="14" fill="#D1D3D4" rx="2" ry="4" style="fill:#ccc;fill-opacity:1"/><circle cx="32" cy="29" r="4" fill="#F1F2F2" style="fill:#d0d2d2;fill-opacity:1"/><path fill="#F1F2F2" d="M29 12a2 2 0 0 1-2 2H2a2 2 0 0 1-2-2v-1a2 2 0 0 1 2-2h25a2 2 0 0 1 2 2z" style="fill:#d0d2d2;fill-opacity:1"/><text xml:space="preserve" x="5.797" y="29.898" style="font-style:normal;font-variant:normal;font-weight:400;font-stretch:normal;font-size:32px;line-height:1.25;font-family:&quot;Liberation Sans&quot;;-inkscape-font-specification:&quot;Liberation Sans&quot;"><tspan x="5.797" y="29.898" style="font-style:normal;font-variant:normal;font-weight:700;font-stretch:normal;font-size:32px;font-family:&quot;Liberation Sans&quot;;-inkscape-font-specification:&quot;Liberation Sans&quot;;fill:#141414;fill-opacity:1">?</tspan></text></svg>